<?xml version="1.0" encoding="UTF-8"?>
<svg id="Camada_3" data-name="Camada 3" xmlns="http://www.w3.org/2000/svg" viewBox="0 0 411.03 92.66">
  <defs>
    <style>
      .cls-1 {
        fill: #302d4a;
      }

      .cls-2 {
        fill: #1f55ff;
      }

      .cls-3 {
        fill: none;
        stroke: #1f55ff;
        stroke-miterlimit: 10;
        stroke-width: 3px;
      }
    </style>
  </defs>
  <g id="Graphic_Elements" data-name="Graphic Elements">
    <g>
      <g>
        <g>
          <path class="cls-2" d="M99.16,43.82c-1.28-.11-5.42-3.25-6.29-2.26-.37.42-.32,1.13.13,1.46,1.24.94,3.02.28,3.61,2.24.26.86.13,1.97-.82,2.51-1.27.72-3.04,1.14-4.48.63-1.85-.65-2.18-4.18-4.18-5.45-.22-.14-.47-.13-.66.05-.52.49.77,2.53,1.06,3.23,2.46,6.01,7.05,4.8,5.82,8.01s-6.31,3.71-4.46,9.58c.61,1.93-.16,3.75-1.88,4.55-2.93,1.36-1.56,4.92-4.17,7.39-.95.9-2.95,1.34-3.69,0-1.36-2.46-2.2-5.3-2.52-8.12-.24-2.12,2.53-5.95-.03-7.31-2.73-1.45-.94-3.72-2.87-5.12-.68-.49-1.74-.72-2.65-.52-3.95.91-7.41-1.32-8.45-5.21-1.45-5.42,2.31-6.85,3.82-9.63s4.85-4.11,7.81-3.02c1.76.65,3.37,3.73,5.9,2.21,2.19-1.32,4.1.3,4.82-.66.22-.29.55-.89.27-1.45-.76-1.48-3.01-2.58-4.57-1.74-3.63,1.95-4.03-2.02-6.42-2.21-2.8-.22-3.92,3.75-6.49,1.18-.45-.45-.66-.94-.53-1.64.17-.93,1.81-1.45,1.85-2.65.05-1.37-2.25-1.63-2.5-3.08-.14-.78.54-1.28,1.01-1.52.75-.38,1.25-.01,2,.3,1.42.59,3.53-.1,4.03-1.63.47-1.43-2.6-2.15-1.81-4.34,1.27-3.52,7.28.8,9.76-2.79,9.33,6.16,15.71,15.93,17.6,26.99Z"/>
          <path class="cls-2" d="M21.16,38.09c3.07-9.43,9.47-17.39,18-22.39.02.57-.05,1.25.37,1.57,1.23.92,3.08-1.27,5.08-1.3.38,0,.85.13.98.38.74,1.48-5.51,3.99-5.76,6.87-.03.35.12.72.37.86.88.47,1.58-1.97,2.88-2.02,1.62-.07.41,2.99,2.47,5.2.51.54.41,1.44.06,2.08-1,1.78-3.95-.27-4.92,2.54-.56,1.61-3.27,2.14-5.17,4.11-.96.99-.55,3.8-2.25,3.8-1.15,0-2.25-.28-3.49-.14-2.19.26-4.01,2.46-3.54,4.59.14.63.43,1.15.74,1.35,1.18.74,2.34-1.22,3.51-1.05.95.14-.43,1.5-.13,2.73.09.37.55.7,1.01,1,1.9,1.28,1,4.92,3.63,3.66,1.54-.74,3.43-1.05,4.75.23,2.65,2.58,4.4.76,6.08,4.08,2.51,4.94,6.3,1.83,8.27,5.52.55,1.04.54,2.17-.22,3.13-2.21,2.75.54,5.42-2.66,6.97-1.46.7-2.24,1.99-2.51,3.54-.79,4.61-5,4.48-3.13,7.73.59,1.03,1.45,1.76,1.8,3.18-7.34-1.14-6.85-10.45-8.1-15.15-1.16-4.38-7.19-4.45-7.86-10.35-.14-1.26.6-2.36,1.33-3.33.8-1.07,1.28-2.7.1-3.59s-2.17-1.82-2.88-3.12c-1.45-2.66-4.55-2.2-5.91-3.51-3.29-3.16.52-8.34-2.89-9.18Z"/>
          <path class="cls-2" d="M50.5,20.7c-.44.68-1.61,1.38-2.15.64-1-1.34-.08-3.06,1.24-3.78.35-.19.52-.56.64-.83.23-.54-.86-1.12-.72-1.63.42-1.56,7.31-2.32,7.79-.55.13.48.02,1.04-.41,1.42-2.24,1.98-4.25,1.47-6.38,4.72Z"/>
          <ellipse class="cls-3" cx="59.45" cy="50.67" rx="40.29" ry="40.49"/>
        </g>
        <g>
          <path class="cls-1" d="M101.79,35.31C92.36,8.19,58.56-.58,34.61,13.81c-8.19,4.92-14.29,12.24-17.37,21.38-1.4.3-2.76.36-4.37.46,1.36-12.29,9.72-22.62,20.14-28.68,16.18-9.42,37.82-9.31,53.87.5,10,6.11,18,16.16,19.16,28.17l-4.24-.32Z"/>
          <path class="cls-1" d="M110.27,38.46c7.6.43,8.8,9.68,8.77,15.57-.02,4.62-.47,9.19-2.85,13.09-.81,1.33-1.51,2.62-2.98,3.21-1.74.7-3.46.95-5.45.77-2.65,2.9-6.96,3.73-10.51,2.06,5.89-10.97,7.12-23.32,3.26-35.17,2.54-1.16,7.03-1.06,8.07,2.43,1.41,4.74,1.81,9.55,1.76,14.54-.01,1.71-.28,3.29.07,5.05,1.98-5.83,1.64-15.38-.14-21.56Z"/>
          <path class="cls-1" d="M6.25,70.42c-6.8-2.68-7.54-19.76-4.66-26.38,1.24-2.86,3.3-5.21,6.91-5.41-1.34,4.6-1.73,9.28-1.32,14.08.22,2.56.23,5.05,1.31,7.5.28-.46.58-1.14.51-1.75-.67-6.02-.31-12.03,1.32-17.85.99-3.52,5.04-3.82,7.91-2.75-3.66,12.68-2.39,23.37,3.62,35.23-3.67,1.77-7.75.8-10.34-2.04-1.8-.12-3.57.03-5.26-.64Z"/>
          <path class="cls-1" d="M68.03,79.04c-4.97.48-6.81,2.39-6.81,4.19,0,.16,0,.32.01.48-.02,0-.05,0-.07,0-36.57,7.28-42.33-16.86-42.33-16.86l-2.06-.53s4.27,25.81,44.88,19.12c.02,0,.04-.01.06-.03.67,1.1,2.23,1.98,5.81,1.94,3.11-.04,7.13-1.48,7.31-4.64.1-1.79-2.03-4.12-6.81-3.66Z"/>
        </g>
      </g>
      <g>
        <path d="M145.33,64.16c-1.39,0-2.5-.32-3.34-.97-.84-.65-1.51-1.67-1.98-3.05l-13.12-36.89c-.61-1.65-.51-3.04.29-4.19.8-1.15,2.18-1.72,4.12-1.72,1.43,0,2.53.32,3.31.97.78.65,1.39,1.67,1.82,3.05l10.65,31.89h-2.79l11.37-31.89c.48-1.39,1.1-2.4,1.88-3.05s1.8-.97,3.05-.97,2.19.32,2.92.97c.74.65,1.34,1.69,1.82,3.12l10.85,31.82h-2.4l10.85-31.89c.48-1.39,1.1-2.4,1.88-3.05s1.84-.97,3.18-.97c1.69,0,2.92.57,3.7,1.72.78,1.15.87,2.54.26,4.19l-13.18,36.89c-.56,1.39-1.25,2.4-2.05,3.05-.8.65-1.89.97-3.28.97s-2.5-.32-3.34-.97c-.84-.65-1.5-1.67-1.98-3.05l-10.26-29.03h1.56l-10.46,29.03c-.52,1.39-1.18,2.4-1.98,3.05-.8.65-1.92.97-3.34.97Z"/>
        <path d="M208.26,25.97c-1.78,0-3.14-.43-4.09-1.3-.95-.87-1.43-2.1-1.43-3.7s.48-2.76,1.43-3.6c.95-.84,2.32-1.27,4.09-1.27s3.22.42,4.19,1.27c.97.84,1.46,2.05,1.46,3.6s-.49,2.84-1.46,3.7c-.97.87-2.37,1.3-4.19,1.3ZM208.26,64.16c-1.52,0-2.71-.47-3.57-1.4-.87-.93-1.3-2.24-1.3-3.93v-22.28c0-1.73.43-3.04,1.3-3.93.87-.89,2.06-1.33,3.57-1.33,1.6,0,2.83.44,3.67,1.33.84.89,1.27,2.2,1.27,3.93v22.28c0,1.69-.41,3-1.23,3.93-.82.93-2.06,1.4-3.7,1.4Z"/>
        <path d="M233,64.29c-1.86,0-3.81-.16-5.85-.49-2.04-.32-3.85-.9-5.46-1.72-.91-.43-1.55-.98-1.92-1.66-.37-.67-.53-1.36-.49-2.08.04-.71.27-1.34.68-1.88.41-.54.95-.91,1.62-1.1.67-.19,1.42-.12,2.24.23,1.78.74,3.41,1.26,4.9,1.56,1.49.3,2.93.45,4.32.45,1.82,0,3.16-.3,4.03-.91.87-.61,1.3-1.39,1.3-2.34,0-.82-.28-1.44-.84-1.85-.56-.41-1.39-.72-2.47-.94l-6.88-1.23c-2.64-.52-4.69-1.52-6.14-2.99-1.45-1.47-2.18-3.38-2.18-5.72,0-2.21.61-4.09,1.82-5.65,1.21-1.56,2.89-2.76,5.03-3.6,2.14-.84,4.58-1.27,7.31-1.27,1.95,0,3.73.17,5.36.52,1.62.35,3.22.93,4.77,1.75.78.35,1.33.84,1.66,1.49s.42,1.32.29,2.01c-.13.69-.4,1.31-.81,1.85-.41.54-.95.91-1.62,1.1-.67.2-1.46.1-2.37-.29-1.39-.56-2.66-.98-3.83-1.27-1.17-.28-2.25-.42-3.25-.42-1.99,0-3.43.3-4.32.91-.89.61-1.33,1.39-1.33,2.34,0,.74.26,1.35.78,1.85.52.5,1.3.83,2.34,1.01l6.88,1.17c2.77.52,4.89,1.48,6.36,2.89,1.47,1.41,2.21,3.3,2.21,5.68,0,3.38-1.29,5.99-3.86,7.83-2.58,1.84-6.01,2.76-10.29,2.76Z"/>
        <path d="M269.31,64.29c-3.77,0-7-.67-9.71-2.01-2.71-1.34-4.78-3.26-6.24-5.75-1.45-2.49-2.18-5.44-2.18-8.87s.7-6.16,2.11-8.61c1.41-2.45,3.34-4.38,5.81-5.81,2.47-1.43,5.26-2.14,8.38-2.14,2.38,0,4.49.38,6.33,1.14,1.84.76,3.43,1.84,4.77,3.25,1.34,1.41,2.36,3.12,3.05,5.13.69,2.01,1.04,4.25,1.04,6.72,0,.82-.26,1.44-.78,1.85-.52.41-1.28.62-2.27.62h-20.33v-5.07h16.3l-1.04.91c0-1.77-.26-3.26-.78-4.45-.52-1.19-1.27-2.1-2.24-2.73-.97-.63-2.18-.94-3.6-.94-1.6,0-2.97.37-4.09,1.1-1.13.74-1.99,1.81-2.6,3.22-.61,1.41-.91,3.08-.91,5.03v.52c0,3.29.76,5.72,2.27,7.27,1.51,1.56,3.81,2.34,6.88,2.34,1.04,0,2.22-.13,3.54-.39,1.32-.26,2.59-.67,3.8-1.23,1.04-.48,1.93-.63,2.66-.45.74.17,1.33.53,1.79,1.07.45.54.7,1.18.75,1.92.04.74-.12,1.46-.49,2.18-.37.71-.99,1.31-1.85,1.79-1.52.87-3.2,1.48-5.07,1.85-1.86.37-3.64.55-5.33.55Z"/>
        <path class="cls-2" d="M294.25,64.16c-1.6,0-2.84-.44-3.7-1.33-.87-.89-1.3-2.15-1.3-3.8V22.47c0-1.69.43-2.97,1.3-3.83.87-.87,2.1-1.3,3.7-1.3s2.9.43,3.77,1.3c.87.87,1.3,2.14,1.3,3.83v13.83h21.24v-13.83c0-1.69.44-2.97,1.33-3.83.89-.87,2.15-1.3,3.8-1.3s2.84.43,3.7,1.3c.87.87,1.3,2.14,1.3,3.83v36.57c0,1.65-.43,2.91-1.3,3.8-.87.89-2.1,1.33-3.7,1.33s-2.91-.44-3.8-1.33c-.89-.89-1.33-2.15-1.33-3.8v-14.42h-21.24v14.42c0,1.65-.42,2.91-1.27,3.8s-2.11,1.33-3.8,1.33Z"/>
        <path class="cls-2" d="M350.82,64.29c-2.69,0-4.91-.5-6.69-1.49-1.78-1-3.08-2.48-3.93-4.45-.84-1.97-1.27-4.45-1.27-7.44v-14.74c0-1.65.42-2.88,1.27-3.7.84-.82,2.05-1.23,3.6-1.23s2.77.41,3.64,1.23c.87.82,1.3,2.06,1.3,3.7v14.94c0,1.86.39,3.27,1.17,4.22.78.95,1.99,1.43,3.64,1.43,1.91,0,3.45-.66,4.64-1.98,1.19-1.32,1.79-3.06,1.79-5.23v-13.38c0-1.65.43-2.88,1.3-3.7.87-.82,2.06-1.23,3.57-1.23,1.6,0,2.83.41,3.67,1.23.84.82,1.27,2.06,1.27,3.7v23.06c0,3.29-1.58,4.94-4.74,4.94-1.52,0-2.71-.42-3.57-1.27-.87-.84-1.3-2.07-1.3-3.67v-4.42l1.04,2.6c-.95,2.25-2.32,3.96-4.09,5.13-1.78,1.17-3.88,1.75-6.3,1.75Z"/>
        <path class="cls-2" d="M397.06,64.29c-2.55,0-4.82-.63-6.79-1.88-1.97-1.26-3.28-2.94-3.93-5.07l.71-2.14v4.03c0,1.6-.42,2.83-1.27,3.67-.84.84-2.02,1.27-3.54,1.27s-2.76-.42-3.6-1.27c-.84-.84-1.27-2.07-1.27-3.67V22.27c0-1.65.43-2.88,1.3-3.7.87-.82,2.06-1.23,3.57-1.23,1.6,0,2.83.41,3.67,1.23.84.82,1.27,2.06,1.27,3.7v15.39h-.71c.65-1.95,1.95-3.53,3.9-4.74,1.95-1.21,4.18-1.82,6.69-1.82,2.81,0,5.26.67,7.34,2.01,2.08,1.34,3.7,3.25,4.87,5.72,1.17,2.47,1.75,5.41,1.75,8.83s-.57,6.39-1.72,8.9c-1.15,2.51-2.78,4.43-4.9,5.75-2.12,1.32-4.57,1.98-7.34,1.98ZM394.14,57.02c1.39,0,2.61-.33,3.67-1.01,1.06-.67,1.88-1.7,2.47-3.08.58-1.39.88-3.14.88-5.26,0-3.16-.65-5.49-1.95-6.98-1.3-1.49-2.99-2.24-5.07-2.24-1.39,0-2.61.32-3.67.97-1.06.65-1.88,1.67-2.47,3.05-.58,1.39-.88,3.12-.88,5.2,0,3.2.65,5.56,1.95,7.08,1.3,1.52,2.99,2.27,5.07,2.27Z"/>
      </g>
      <g>
        <path d="M144.6,79.23h-4.27v3.33h4.77v1.7h-6.84v-11.33h6.59v1.7h-4.52v2.92h4.27v1.68Z"/>
        <path d="M155.04,83.92c-.49.25-1.56.5-2.92.5-3.6,0-5.78-2.25-5.78-5.7,0-3.73,2.59-5.98,6.05-5.98,1.36,0,2.34.29,2.76.5l-.45,1.65c-.54-.24-1.28-.44-2.22-.44-2.3,0-3.97,1.45-3.97,4.17,0,2.49,1.46,4.08,3.95,4.08.84,0,1.71-.17,2.25-.42l.34,1.63Z"/>
        <path d="M166.42,78.48c0,3.8-2.3,5.97-5.43,5.97s-5.21-2.44-5.21-5.77,2.19-5.93,5.38-5.93,5.26,2.5,5.26,5.73ZM157.96,78.64c0,2.3,1.16,4.13,3.14,4.13s3.13-1.85,3.13-4.22c0-2.13-1.06-4.15-3.13-4.15s-3.14,1.9-3.14,4.24Z"/>
        <path d="M168.15,82.01c.67.39,1.68.72,2.74.72,1.33,0,2.07-.62,2.07-1.55,0-.86-.57-1.36-2.02-1.88-1.87-.67-3.06-1.66-3.06-3.29,0-1.85,1.55-3.26,4-3.26,1.23,0,2.13.27,2.72.57l-.5,1.66c-.4-.22-1.19-.54-2.25-.54-1.31,0-1.88.71-1.88,1.36,0,.87.66,1.28,2.17,1.87,1.97.74,2.92,1.73,2.92,3.36,0,1.82-1.38,3.39-4.3,3.39-1.19,0-2.44-.34-3.06-.71l.45-1.71Z"/>
        <path d="M176.88,82.01c.67.39,1.68.72,2.74.72,1.33,0,2.07-.62,2.07-1.55,0-.86-.57-1.36-2.02-1.88-1.87-.67-3.06-1.66-3.06-3.29,0-1.85,1.55-3.26,4-3.26,1.23,0,2.13.27,2.72.57l-.5,1.66c-.4-.22-1.19-.54-2.25-.54-1.31,0-1.88.71-1.88,1.36,0,.87.66,1.28,2.17,1.87,1.97.74,2.92,1.73,2.92,3.36,0,1.82-1.38,3.39-4.3,3.39-1.19,0-2.44-.34-3.06-.71l.45-1.71Z"/>
        <path d="M187.72,72.93v11.33h-2.07v-11.33h2.07Z"/>
        <path d="M190.04,82.01c.67.39,1.68.72,2.74.72,1.33,0,2.07-.62,2.07-1.55,0-.86-.57-1.36-2.02-1.88-1.87-.67-3.06-1.66-3.06-3.29,0-1.85,1.55-3.26,4-3.26,1.23,0,2.13.27,2.72.57l-.5,1.66c-.4-.22-1.19-.54-2.25-.54-1.31,0-1.88.71-1.88,1.36,0,.87.66,1.28,2.17,1.87,1.97.74,2.92,1.73,2.92,3.36,0,1.82-1.38,3.39-4.3,3.39-1.19,0-2.44-.34-3.06-.71l.45-1.71Z"/>
        <path d="M200.98,74.66h-3.23v-1.73h8.55v1.73h-3.26v9.6h-2.07v-9.6Z"/>
        <path d="M213.98,79.23h-4.27v3.33h4.77v1.7h-6.84v-11.33h6.59v1.7h-4.52v2.92h4.27v1.68Z"/>
        <path d="M225.86,79.64c-.07-1.46-.15-3.23-.13-4.76h-.05c-.37,1.38-.84,2.91-1.34,4.34l-1.65,4.91h-1.6l-1.51-4.84c-.44-1.45-.84-2.99-1.14-4.4h-.03c-.05,1.48-.12,3.28-.2,4.82l-.25,4.55h-1.93l.76-11.33h2.72l1.48,4.55c.4,1.33.76,2.67,1.04,3.93h.05c.3-1.23.69-2.62,1.13-3.95l1.56-4.54h2.69l.66,11.33h-2.02l-.22-4.62Z"/>
        <path d="M232.37,81.05l-.97,3.21h-2.13l3.63-11.33h2.64l3.68,11.33h-2.22l-1.02-3.21h-3.6ZM235.61,79.49l-.89-2.79c-.22-.69-.4-1.46-.57-2.12h-.03c-.17.66-.34,1.45-.54,2.12l-.87,2.79h2.91Z"/>
        <path d="M253.34,83.74c-.72.27-2.13.64-3.65.64-1.92,0-3.36-.49-4.44-1.51-1.01-.96-1.6-2.45-1.58-4.17,0-3.58,2.55-5.88,6.3-5.88,1.4,0,2.49.29,3.01.54l-.45,1.66c-.62-.27-1.38-.49-2.57-.49-2.42,0-4.12,1.43-4.12,4.07s1.58,4.1,3.93,4.1c.74,0,1.29-.1,1.56-.24v-2.82h-2v-1.63h4v5.73Z"/>
        <path d="M255.46,72.93h2.07v9.6h4.66v1.73h-6.72v-11.33Z"/>
        <path d="M273.15,78.48c0,3.8-2.3,5.97-5.43,5.97s-5.21-2.44-5.21-5.77,2.19-5.93,5.38-5.93,5.26,2.5,5.26,5.73ZM264.69,78.64c0,2.3,1.16,4.13,3.14,4.13s3.13-1.85,3.13-4.22c0-2.13-1.06-4.15-3.13-4.15s-3.14,1.9-3.14,4.24Z"/>
        <path d="M274.93,73.08c.66-.13,1.85-.24,3.01-.24,1.53,0,2.47.18,3.24.72.71.42,1.18,1.16,1.18,2.12,0,1.04-.66,2-1.88,2.45v.03c1.19.3,2.29,1.24,2.29,2.81,0,1.01-.44,1.8-1.09,2.34-.81.71-2.14,1.06-4.2,1.06-1.14,0-2.02-.08-2.54-.15v-11.14ZM276.98,77.55h1.06c1.43,0,2.24-.67,2.24-1.63,0-1.06-.81-1.55-2.12-1.55-.61,0-.96.03-1.18.08v3.09ZM276.98,82.76c.27.03.62.05,1.09.05,1.33,0,2.5-.5,2.5-1.9,0-1.31-1.14-1.85-2.57-1.85h-1.02v3.7Z"/>
        <path d="M286.83,81.05l-.97,3.21h-2.13l3.63-11.33h2.64l3.68,11.33h-2.22l-1.02-3.21h-3.6ZM290.08,79.49l-.89-2.79c-.22-.69-.4-1.46-.57-2.12h-.03c-.17.66-.34,1.45-.54,2.12l-.87,2.79h2.91Z"/>
        <path d="M295.25,72.93h2.07v9.6h4.66v1.73h-6.72v-11.33Z"/>
        <path d="M307.02,73.08c.91-.15,2.07-.24,3.29-.24,2.12,0,3.58.44,4.62,1.31,1.09.89,1.76,2.24,1.76,4.17s-.69,3.53-1.76,4.5c-1.13,1.03-2.92,1.55-5.13,1.55-1.21,0-2.12-.07-2.79-.15v-11.14ZM309.09,82.68c.29.05.72.05,1.14.05,2.69.02,4.29-1.46,4.29-4.34.02-2.5-1.43-3.93-4.02-3.93-.66,0-1.13.05-1.41.12v8.1Z"/>
        <path d="M324.84,79.23h-4.27v3.33h4.77v1.7h-6.84v-11.33h6.59v1.7h-4.52v2.92h4.27v1.68Z"/>
        <path d="M340.2,79.64c-.07-1.46-.15-3.23-.13-4.76h-.05c-.37,1.38-.84,2.91-1.34,4.34l-1.65,4.91h-1.6l-1.51-4.84c-.44-1.45-.84-2.99-1.14-4.4h-.03c-.05,1.48-.12,3.28-.2,4.82l-.25,4.55h-1.93l.76-11.33h2.72l1.48,4.55c.4,1.33.76,2.67,1.04,3.93h.05c.3-1.23.69-2.62,1.13-3.95l1.56-4.54h2.69l.66,11.33h-2.02l-.22-4.62Z"/>
        <path d="M346.61,72.93v11.33h-2.07v-11.33h2.07Z"/>
        <path d="M358.06,83.74c-.72.27-2.13.64-3.65.64-1.92,0-3.36-.49-4.44-1.51-1.01-.96-1.6-2.45-1.58-4.17,0-3.58,2.55-5.88,6.3-5.88,1.4,0,2.49.29,3.01.54l-.45,1.66c-.62-.27-1.38-.49-2.57-.49-2.42,0-4.12,1.43-4.12,4.07s1.58,4.1,3.93,4.1c.74,0,1.29-.1,1.56-.24v-2.82h-2v-1.63h4v5.73Z"/>
        <path d="M360.18,73.08c.77-.13,1.93-.24,3.13-.24,1.63,0,2.74.27,3.5.91.62.52.97,1.31.97,2.27,0,1.46-.99,2.45-2.05,2.84v.05c.81.3,1.29,1.09,1.58,2.19.35,1.41.66,2.72.89,3.16h-2.13c-.17-.34-.44-1.26-.76-2.67-.32-1.48-.86-1.95-2.03-1.98h-1.04v4.66h-2.05v-11.18ZM362.23,78.09h1.23c1.39,0,2.27-.74,2.27-1.87,0-1.24-.87-1.81-2.22-1.81-.66,0-1.08.05-1.28.1v3.58Z"/>
        <path d="M372.13,81.05l-.97,3.21h-2.13l3.63-11.33h2.64l3.68,11.33h-2.22l-1.02-3.21h-3.6ZM375.37,79.49l-.89-2.79c-.22-.69-.4-1.46-.57-2.12h-.03c-.17.66-.34,1.45-.54,2.12l-.87,2.79h2.91Z"/>
        <path d="M388.31,83.92c-.47.25-1.51.49-2.82.5l-.32.62c.64.13,1.19.57,1.19,1.31,0,1.09-.96,1.48-1.87,1.48-.49,0-.99-.12-1.34-.32l.3-.91c.25.13.61.24.94.24.35,0,.64-.13.64-.45,0-.39-.45-.59-1.31-.67l.66-1.36c-2.99-.39-4.77-2.52-4.77-5.63,0-3.73,2.59-5.98,6.05-5.98,1.36,0,2.34.29,2.76.5l-.45,1.65c-.54-.24-1.28-.44-2.22-.44-2.3,0-3.97,1.45-3.97,4.17,0,2.49,1.46,4.08,3.95,4.08.84,0,1.71-.17,2.25-.42l.34,1.63Z"/>
        <path d="M392.47,81.05l-.97,3.21h-2.13l3.63-11.33h2.64l3.68,11.33h-2.22l-1.02-3.21h-3.6ZM392.17,72.24c-.03-1.24.45-1.95,1.23-1.95.42,0,.72.15,1.04.34.29.17.54.32.77.32.27,0,.4-.15.45-.69h.97c.03,1.29-.4,1.88-1.23,1.88-.42,0-.74-.13-1.06-.32-.32-.17-.52-.3-.76-.3s-.39.25-.42.72h-1.01ZM395.71,79.49l-.89-2.79c-.22-.69-.4-1.46-.57-2.12h-.03c-.17.66-.34,1.45-.54,2.12l-.87,2.79h2.91Z"/>
        <path d="M410.59,78.48c0,3.8-2.3,5.97-5.43,5.97s-5.21-2.44-5.21-5.77,2.19-5.93,5.38-5.93,5.26,2.5,5.26,5.73ZM402.13,78.64c0,2.3,1.16,4.13,3.14,4.13s3.13-1.85,3.13-4.22c0-2.13-1.06-4.15-3.13-4.15s-3.14,1.9-3.14,4.24Z"/>
      </g>
    </g>
  </g>
</svg>